<?xml version="1.0" encoding="UTF-8"?>
<svg width="16px" height="16px" viewBox="0 0 16 16" version="1.1" xmlns="http://www.w3.org/2000/svg" xmlns:xlink="http://www.w3.org/1999/xlink">
    <title>icon/copy-dark</title>
    <g id="Staking" stroke="none" stroke-width="1" fill="none" fill-rule="evenodd" stroke-linecap="round" stroke-linejoin="round">
        <g id="Staking-Desktop-Dark-02c" transform="translate(-745.000000, -366.000000)" stroke="#56CDC0" stroke-width="1.5">
            <g id="pop-up" transform="translate(528.000000, 124.000000)">
                <g id="button-glow" transform="translate(24.000000, 179.000000)">
                    <g id="icon/copy-dark" transform="translate(194.000000, 64.000000)">
                        <path d="M3.5,10.5 L1.75,10.5 C0.78350125,10.5 0,9.716525 0,8.75 L0,1.75 C0,0.78350125 0.78350125,0 1.75,0 L8.75,0 C9.716525,0 10.5,0.78350125 10.5,1.75 L10.5,3.5 M5.25,14 L12.25,14 C13.216525,14 14,13.216525 14,12.25 L14,5.25 C14,4.28350125 13.216525,3.5 12.25,3.5 L5.25,3.5 C4.28350125,3.5 3.5,4.28350125 3.5,5.25 L3.5,12.25 C3.5,13.216525 4.28350125,14 5.25,14 Z" id="Shape"></path>
                    </g>
                </g>
            </g>
        </g>
    </g>
</svg>