<?xml version="1.0" encoding="UTF-8"?>
<svg width="162px" height="47px" viewBox="0 0 162 47" version="1.1" xmlns="http://www.w3.org/2000/svg" xmlns:xlink="http://www.w3.org/1999/xlink">
    <title>logo/your/new-gradient</title>
    <defs>
        <linearGradient x1="-26.2438635%" y1="43.5407168%" x2="108.549419%" y2="54.9613634%" id="linearGradient-1">
            <stop stop-color="#88CAB9" offset="0%"></stop>
            <stop stop-color="#2E7A6E" offset="51.9176136%"></stop>
            <stop stop-color="#2B7368" offset="100%"></stop>
        </linearGradient>
    </defs>
    <g id="logo/your/new-gradient" stroke="none" stroke-width="1" fill="none" fill-rule="evenodd">
        <path d="M126.0567,3.5027 L126.0567,43.7597 C126.0567,44.3117 125.6087,44.7597 125.0567,44.7597 L115.2927,44.7597 C114.7407,44.7597 114.2927,44.3117 114.2927,43.7597 L114.2927,41.2767 C111.8167,43.9857 107.4057,45.7657 102.6837,45.7657 C91.9267,45.7657 84.9607,37.4837 84.9607,26.1857 L84.9607,3.5027 C84.9607,2.9507 85.4087,2.5027 85.9607,2.5027 L96.5767,2.5027 C97.1287,2.5027 97.5767,2.9507 97.5767,3.5027 L97.5767,25.4117 C97.5767,30.5967 100.8267,33.3057 105.4697,33.3057 C110.1137,33.3057 113.4417,29.7457 113.4417,24.7147 L113.4417,3.5027 C113.4417,2.9507 113.8887,2.5027 114.4417,2.5027 L125.0567,2.5027 C125.6087,2.5027 126.0567,2.9507 126.0567,3.5027 M58.6485,0.4911 C71.1865,0.4911 81.3245,10.8611 81.3245,23.5531 C81.3245,36.2461 71.1865,46.6171 58.6485,46.6171 C46.1885,46.6171 36.0495,36.2461 36.0495,23.5531 C36.0495,10.8611 46.1885,0.4911 58.6485,0.4911 Z M13.722,0 C14.077,0 14.406,0.188 14.585,0.494 L14.585,0.494 L18.898,7.849 L26.562,20.973 L26.562,43.852 C26.562,44.404 26.114,44.852 25.562,44.852 L25.562,44.852 L14.638,44.852 C14.085,44.852 13.638,44.404 13.638,43.852 L13.638,43.852 L13.638,23.53 C13.638,23.344 13.586,23.161 13.487,23.003 L13.487,23.003 L0.152,1.527 C-0.262,0.861 0.217,0 1.002,0 L1.002,0 Z M58.6485,12.4871 C53.1535,12.4871 48.5875,17.4401 48.5875,23.5531 C48.5875,29.6681 53.1535,34.6211 58.6485,34.6211 C64.2205,34.6211 68.7875,29.6681 68.7875,23.5531 C68.7875,17.4401 64.2205,12.4871 58.6485,12.4871 Z M38.8784,0.1501 C39.62225,0.1501 40.0926425,0.92625 39.7837262,1.57573413 L39.7284,1.6771 L29.9654,17.4401 C29.5917529,18.0433941 28.7397668,18.0682522 28.3240175,17.5263463 L28.2514,17.4181 L22.1634,6.9911 C22.00415,6.7181 21.9842437,6.38844375 22.1043512,6.10194961 L22.1644,5.9821 L25.2924,0.6441 C25.4515111,0.3721 25.7291407,0.193334568 26.0381997,0.156966941 L26.1554,0.1501 L38.8784,0.1501 Z M161.8806,4.061 L158.0396,14.283 C157.8356,14.827 157.2186,15.073 156.6906,14.834 C155.3136,14.209 153.7036,13.957 152.1436,13.957 C147.4216,13.957 144.1716,17.44 144.1716,22.393 L144.1716,43.76 C144.1716,44.312 143.7246,44.76 143.1716,44.76 L132.6346,44.76 C132.0826,44.76 131.6346,44.312 131.6346,43.76 L131.6346,3.503 C131.6346,2.95 132.0826,2.503 132.6346,2.503 L142.3206,2.503 C142.8726,2.503 143.3206,2.95 143.3206,3.503 L143.3206,5.598 C146.2616,2.812 150.2086,1.42 154.2326,1.42 C157.3876,1.42 159.7926,2.116 161.3576,2.795 C161.8436,3.006 162.0666,3.565 161.8806,4.061" id="Combined-Shape" fill="url(#linearGradient-1)"></path>
    </g>
</svg>