<?xml version="1.0" encoding="UTF-8"?>
<svg width="238px" height="238px" viewBox="0 0 238 238" version="1.1" xmlns="http://www.w3.org/2000/svg" xmlns:xlink="http://www.w3.org/1999/xlink">
    <title>logo/your/icon/white</title>
    <defs>
        <linearGradient x1="-24.5801021%" y1="-24.2658799%" x2="108.549419%" y2="109.875843%" id="linearGradient-1">
            <stop stop-color="#88CAB9" offset="0%"></stop>
            <stop stop-color="#2E7A6E" offset="51.9176136%"></stop>
            <stop stop-color="#2B7368" offset="100%"></stop>
        </linearGradient>
    </defs>
    <g id="logo/your/icon/white" stroke="none" stroke-width="1" fill="none" fill-rule="evenodd">
        <g id="Group-8" fill="url(#linearGradient-1)" fill-rule="nonzero">
            <circle id="Oval" cx="119" cy="119" r="119"></circle>
        </g>
        <path d="M164.0567,99.5027 L164.0567,139.7597 C164.0567,140.3117 163.6087,140.7597 163.0567,140.7597 L153.2927,140.7597 C152.7407,140.7597 152.2927,140.3117 152.2927,139.7597 L152.2927,137.2767 C149.8167,139.9857 145.4057,141.7657 140.6837,141.7657 C129.9267,141.7657 122.9607,133.4837 122.9607,122.1857 L122.9607,99.5027 C122.9607,98.9507 123.4087,98.5027 123.9607,98.5027 L134.5767,98.5027 C135.1287,98.5027 135.5767,98.9507 135.5767,99.5027 L135.5767,121.4117 C135.5767,126.5967 138.8267,129.3057 143.4697,129.3057 C148.1137,129.3057 151.4417,125.7457 151.4417,120.7147 L151.4417,99.5027 C151.4417,98.9507 151.8887,98.5027 152.4417,98.5027 L163.0567,98.5027 C163.6087,98.5027 164.0567,98.9507 164.0567,99.5027 M96.6485,96.4911 C109.1865,96.4911 119.3245,106.8611 119.3245,119.5531 C119.3245,132.2461 109.1865,142.6171 96.6485,142.6171 C84.1885,142.6171 74.0495,132.2461 74.0495,119.5531 C74.0495,106.8611 84.1885,96.4911 96.6485,96.4911 Z M51.722,96 C52.077,96 52.406,96.188 52.585,96.494 L52.585,96.494 L56.898,103.849 L64.562,116.973 L64.562,139.852 C64.562,140.404 64.114,140.852 63.562,140.852 L63.562,140.852 L52.638,140.852 C52.085,140.852 51.638,140.404 51.638,139.852 L51.638,139.852 L51.638,119.53 C51.638,119.344 51.586,119.161 51.487,119.003 L51.487,119.003 L38.152,97.527 C37.738,96.861 38.217,96 39.002,96 L39.002,96 Z M96.6485,108.4871 C91.1535,108.4871 86.5875,113.4401 86.5875,119.5531 C86.5875,125.6681 91.1535,130.6211 96.6485,130.6211 C102.2205,130.6211 106.7875,125.6681 106.7875,119.5531 C106.7875,113.4401 102.2205,108.4871 96.6485,108.4871 Z M76.8784,96.1501 C77.62225,96.1501 78.0926425,96.92625 77.7837262,97.5757341 L77.7284,97.6771 L67.9654,113.4401 C67.5917529,114.043394 66.7397668,114.068252 66.3240175,113.526346 L66.2514,113.4181 L60.1634,102.9911 C60.00415,102.7181 59.9842437,102.388444 60.1043512,102.10195 L60.1644,101.9821 L63.2924,96.6441 C63.4515111,96.3721 63.7291407,96.1933346 64.0381997,96.1569669 L64.1554,96.1501 L76.8784,96.1501 Z M199.8806,100.061 L196.0396,110.283 C195.8356,110.827 195.2186,111.073 194.6906,110.834 C193.3136,110.209 191.7036,109.957 190.1436,109.957 C185.4216,109.957 182.1716,113.44 182.1716,118.393 L182.1716,139.76 C182.1716,140.312 181.7246,140.76 181.1716,140.76 L170.6346,140.76 C170.0826,140.76 169.6346,140.312 169.6346,139.76 L169.6346,99.503 C169.6346,98.95 170.0826,98.503 170.6346,98.503 L180.3206,98.503 C180.8726,98.503 181.3206,98.95 181.3206,99.503 L181.3206,101.598 C184.2616,98.812 188.2086,97.42 192.2326,97.42 C195.3876,97.42 197.7926,98.116 199.3576,98.795 C199.8436,99.006 200.0666,99.565 199.8806,100.061" id="Combined-Shape" fill="#F7F8F8"></path>
    </g>
</svg>