<svg width="24" height="26" viewBox="0 0 24 26" fill="none" xmlns="http://www.w3.org/2000/svg">
<path d="M15.3432 11.9589C13.8837 9.44195 14.1535 7.19421 14.3682 5.75245L14.3905 5.60361C14.4355 5.3056 14.4787 5.01871 14.4934 4.78517C14.5021 4.6466 14.5034 4.49437 14.4795 4.34805C14.456 4.20421 14.3996 4.01192 14.248 3.84931C13.9036 3.47988 13.42 3.58244 13.1587 3.66551C12.8483 3.76423 12.4604 3.96031 11.9897 4.23089C7.97277 6.54004 6.59648 11.6543 8.91564 15.6538C11.2348 19.6534 16.3712 21.0237 20.3881 18.7146C20.8588 18.444 21.2233 18.2075 21.4644 17.9892C21.6673 17.8055 21.9983 17.4398 21.8492 16.9581C21.7835 16.7461 21.6445 16.6013 21.5311 16.5091C21.4158 16.4153 21.2827 16.3403 21.1579 16.2786C20.9474 16.1744 20.6763 16.0683 20.3946 15.9581L20.2539 15.9029C18.8926 15.3671 16.8026 14.4759 15.3432 11.9589Z" fill="url(#paint0_linear_161:406)"/>
<g filter="url(#filter0_b_161:406)">
<path d="M12.0866 13.3962C9.75142 9.36903 10.183 5.77265 10.5266 3.46584L10.5623 3.22769C10.6342 2.75087 10.7035 2.29186 10.7269 1.91818C10.7408 1.69647 10.7429 1.4529 10.7047 1.21879C10.6671 0.988653 10.5768 0.680984 10.3343 0.420807C9.78324 -0.170283 9.00942 -0.00618916 8.59147 0.126728C8.09481 0.28468 7.47411 0.598408 6.72099 1.03134C0.293937 4.72598 -1.90814 12.9087 1.80253 19.308C5.51319 25.7073 13.7314 27.8999 20.1585 24.2053C20.9116 23.7723 21.4948 23.394 21.8805 23.0447C22.2051 22.7507 22.7348 22.1655 22.4962 21.3949C22.3911 21.0556 22.1687 20.8239 21.9873 20.6765C21.8028 20.5264 21.5899 20.4065 21.3901 20.3076C21.0534 20.141 20.6196 19.9712 20.1689 19.7948L19.9438 19.7065C17.7656 18.8493 14.4217 17.4233 12.0866 13.3962Z" fill="url(#paint1_radial_161:406)" fill-opacity="0.6"/>
</g>
<defs>
<filter id="filter0_b_161:406" x="-5.094" y="-5.094" width="32.7437" height="36.188" filterUnits="userSpaceOnUse" color-interpolation-filters="sRGB">
<feFlood flood-opacity="0" result="BackgroundImageFix"/>
<feGaussianBlur in="BackgroundImage" stdDeviation="2.547"/>
<feComposite in2="SourceAlpha" operator="in" result="effect1_backgroundBlur_161:406"/>
<feBlend mode="normal" in="SourceGraphic" in2="effect1_backgroundBlur_161:406" result="shape"/>
</filter>
<linearGradient id="paint0_linear_161:406" x1="7.78906" y1="19.8363" x2="24.1188" y2="6.27392" gradientUnits="userSpaceOnUse">
<stop stop-color="#AC28F5"/>
<stop offset="1" stop-color="#AC28F5"/>
</linearGradient>
<radialGradient id="paint1_radial_161:406" cx="0" cy="0" r="1" gradientUnits="userSpaceOnUse" gradientTransform="translate(8.25 2.11582) rotate(62.3454) scale(38.7813 33.5819)">
<stop stop-color="white"/>
<stop offset="1" stop-color="white" stop-opacity="0"/>
</radialGradient>
</defs>
</svg>
