<?xml version="1.0" encoding="UTF-8"?>
<svg width="92px" height="48px" viewBox="0 0 92 48" version="1.1" xmlns="http://www.w3.org/2000/svg" xmlns:xlink="http://www.w3.org/1999/xlink">
    <title>mode-switch/light</title>
    <defs>
        <rect id="path-1" x="0" y="0" width="76" height="32" rx="16"></rect>
        <filter x="-16.4%" y="-35.9%" width="132.9%" height="178.1%" filterUnits="objectBoundingBox" id="filter-2">
            <feOffset dx="0" dy="1" in="SourceAlpha" result="shadowOffsetOuter1"></feOffset>
            <feGaussianBlur stdDeviation="4" in="shadowOffsetOuter1" result="shadowBlurOuter1"></feGaussianBlur>
            <feColorMatrix values="0 0 0 0 0   0 0 0 0 0   0 0 0 0 0  0 0 0 0.05 0" type="matrix" in="shadowBlurOuter1"></feColorMatrix>
        </filter>
        <linearGradient x1="112.754949%" y1="57.5617284%" x2="-45.849332%" y2="40.3927163%" id="linearGradient-3">
            <stop stop-color="#FFFFFF" offset="0%"></stop>
            <stop stop-color="#C5D9D8" offset="100%"></stop>
        </linearGradient>
    </defs>
    <g id="Staking" stroke="none" stroke-width="1" fill="none" fill-rule="evenodd">
        <g id="Staking-Desktop-Light-01" transform="translate(-1290.000000, -2008.000000)">
            <g id="mode-switch/light" transform="translate(1298.000000, 2015.000000)">
                <g id="Rectangle">
                    <use fill="black" fill-opacity="1" filter="url(#filter-2)" xlink:href="#path-1"></use>
                    <use fill="#FFFFFF" fill-rule="evenodd" xlink:href="#path-1"></use>
                </g>
                <rect id="Rectangle" fill="url(#linearGradient-3)" x="2" y="2" width="72" height="28" rx="14"></rect>
                <g id="icon/cloud-download" transform="translate(42.000000, 9.000000)" stroke="#C7E2DE" stroke-linecap="round" stroke-linejoin="round" stroke-width="1.5">
                    <path d="M5,14 C2.23858,14 0,11.7614 0,9 C0,6.55154 1.75992,4.51413 4.08376,4.08376 C4.51412,1.75992 6.55154,0 9,0 C11.4485,0 13.4859,1.75992 13.9162,4.08376 C16.2401,4.51413 18,6.55154 18,9 C18,11.7614 15.7614,14 13,14 C9,14 9,14 5,14 Z" id="Shape"></path>
                </g>
                <circle id="Oval" fill="#FFFFFF" cx="16" cy="16" r="10"></circle>
            </g>
        </g>
    </g>
</svg>