<svg width="48" height="49" viewBox="0 0 48 49" fill="none" xmlns="http://www.w3.org/2000/svg">
<path d="M45.5428 2.30859L26.8638 16.1654L30.3372 7.99913L45.5428 2.30859Z" fill="#E17726"/>
<path fill-rule="evenodd" clip-rule="evenodd" d="M45.624 2.26407C45.646 2.30451 45.6349 2.35498 45.5979 2.38241L26.9189 16.2392C26.8854 16.2641 26.8394 16.2634 26.8067 16.2376C26.7739 16.2118 26.7625 16.1672 26.7789 16.1289L30.2523 7.96259C30.2622 7.9393 30.2812 7.9211 30.3049 7.91223L45.5105 2.22169C45.5536 2.20556 45.602 2.22363 45.624 2.26407ZM30.4068 8.07137L27.082 15.8882L44.9616 2.62437L30.4068 8.07137Z" fill="#E17726"/>
<path d="M2.45703 2.30859L20.9697 16.2947L17.6626 7.99913L2.45703 2.30859Z" fill="#E27625"/>
<path fill-rule="evenodd" clip-rule="evenodd" d="M2.37618 2.26372C2.39828 2.22351 2.44654 2.20561 2.48951 2.22169L17.6951 7.91223C17.7194 7.92135 17.7388 7.94035 17.7485 7.96453L21.0556 16.2601C21.071 16.2987 21.0588 16.3427 21.0259 16.3678C20.9929 16.393 20.9472 16.3931 20.9141 16.3681L2.40145 2.38192C2.36484 2.35426 2.35408 2.30393 2.37618 2.26372ZM3.01953 2.61732L20.7615 16.0212L17.592 8.07093L3.01953 2.61732Z" fill="#E27625"/>
<path d="M38.8176 34.4375L33.8477 42.0495L44.4897 44.9872L47.5382 34.6038L38.8176 34.4375Z" fill="#E27625"/>
<path fill-rule="evenodd" clip-rule="evenodd" d="M38.7404 34.3876C38.7578 34.3609 38.7877 34.3451 38.8195 34.3457L47.54 34.512C47.5688 34.5125 47.5957 34.5265 47.6128 34.5497C47.6298 34.5729 47.635 34.6028 47.6269 34.6304L44.5784 45.0138C44.5642 45.0622 44.5138 45.0902 44.4652 45.0768L33.8232 42.1391C33.7947 42.1313 33.7718 42.1103 33.7613 42.0828C33.7509 42.0552 33.7543 42.0243 33.7704 41.9996L38.7404 34.3876ZM38.8671 34.5314L33.9942 41.9947L44.4267 44.8745L47.4156 34.6944L38.8671 34.5314Z" fill="#E27625"/>
<path d="M0.480469 34.6038L3.51049 44.9872L14.134 42.0495L9.18255 34.4375L0.480469 34.6038Z" fill="#E27625"/>
<path fill-rule="evenodd" clip-rule="evenodd" d="M9.18088 34.3457C9.21276 34.3451 9.24269 34.361 9.26008 34.3877L14.2116 41.9997C14.2276 42.0244 14.231 42.0553 14.2205 42.0828C14.2101 42.1104 14.1872 42.1313 14.1588 42.1391L3.53521 45.0768C3.48652 45.0902 3.43606 45.0621 3.42191 45.0136L0.391883 34.6302C0.383824 34.6026 0.389091 34.5728 0.40613 34.5496C0.423169 34.5265 0.450035 34.5126 0.478798 34.512L9.18088 34.3457ZM0.603074 34.6944L3.57375 44.8744L13.9879 41.9947L9.13316 34.5314L0.603074 34.6944Z" fill="#E27625"/>
<path d="M13.5611 21.5781L10.605 26.0492L21.1362 26.5296L20.7851 15.167L13.5611 21.5781Z" fill="#E27625"/>
<path fill-rule="evenodd" clip-rule="evenodd" d="M20.8218 15.0827C20.8547 15.0969 20.8764 15.1289 20.8775 15.1647L21.2286 26.5273C21.2294 26.553 21.2194 26.5779 21.2011 26.596C21.1828 26.614 21.1577 26.6236 21.132 26.6224L10.6009 26.1421C10.5676 26.1406 10.5378 26.1213 10.5227 26.0917C10.5077 26.062 10.5097 26.0266 10.528 25.9988L13.4841 21.5277C13.4886 21.521 13.4939 21.5149 13.4999 21.5096L20.7239 15.0985C20.7507 15.0747 20.7889 15.0686 20.8218 15.0827ZM13.6316 21.6397L10.7719 25.9649L21.0408 26.4333L20.699 15.3676L13.6316 21.6397Z" fill="#E27625"/>
<path d="M34.4388 21.5785L27.104 15.0381L26.8638 26.53L37.3949 26.0496L34.4388 21.5785Z" fill="#E27625"/>
<path fill-rule="evenodd" clip-rule="evenodd" d="M27.0672 14.953C27.1002 14.9386 27.1386 14.9447 27.1655 14.9687L34.5004 21.5092C34.5063 21.5145 34.5116 21.5205 34.516 21.5272L37.4721 25.9983C37.4904 26.026 37.4925 26.0615 37.4774 26.0911C37.4623 26.1208 37.4325 26.14 37.3993 26.1415L26.8681 26.6219C26.8425 26.6231 26.8177 26.6136 26.7994 26.5957C26.7811 26.5779 26.771 26.5532 26.7715 26.5277L27.0117 15.0358C27.0124 14.9997 27.0341 14.9674 27.0672 14.953ZM27.1922 15.2401L26.9583 26.4328L37.2282 25.9644L34.3685 21.6391L27.1922 15.2401Z" fill="#E27625"/>
<path d="M14.1338 42.0496L20.5079 38.9641L15.0206 34.6777L14.1338 42.0496Z" fill="#E27625"/>
<path fill-rule="evenodd" clip-rule="evenodd" d="M14.9853 34.592C15.016 34.5792 15.0513 34.584 15.0776 34.6045L20.5649 38.8909C20.59 38.9106 20.6033 38.9418 20.5999 38.9735C20.5965 39.0052 20.577 39.033 20.5483 39.0469L14.1741 42.1323C14.1437 42.147 14.1077 42.144 14.0802 42.1244C14.0527 42.1047 14.0381 42.0717 14.0422 42.0381L14.929 34.6663C14.933 34.6332 14.9545 34.6048 14.9853 34.592ZM15.0929 34.8509L14.2458 41.8924L20.3342 38.9452L15.0929 34.8509Z" fill="#E27625"/>
<path d="M27.4917 38.9641L33.8474 42.0496L32.979 34.6777L27.4917 38.9641Z" fill="#E27625"/>
<path fill-rule="evenodd" clip-rule="evenodd" d="M33.0147 34.5921C33.0455 34.6049 33.0669 34.6334 33.0708 34.6665L33.9392 42.0384C33.9431 42.0719 33.9285 42.1049 33.901 42.1245C33.8735 42.144 33.8375 42.147 33.8071 42.1323L27.4514 39.0468C27.4228 39.0329 27.4033 39.0052 27.3999 38.9735C27.3966 38.9417 27.4098 38.9105 27.4349 38.8909L32.9222 34.6045C32.9485 34.584 32.9839 34.5792 33.0147 34.5921ZM27.6654 38.9453L33.736 41.8924L32.9066 34.8512L27.6654 38.9453Z" fill="#E27625"/>
<path d="M33.8474 42.0493L27.4917 38.9639L28.009 43.1024L27.9536 44.8576L33.8474 42.0493Z" fill="#D5BFB2"/>
<path fill-rule="evenodd" clip-rule="evenodd" d="M27.438 38.8894C27.4655 38.8696 27.5017 38.8666 27.5321 38.8813L33.8878 41.9668C33.9197 41.9823 33.94 42.0147 33.9398 42.0502C33.9397 42.0857 33.9192 42.118 33.8872 42.1333L27.9934 44.9416C27.9643 44.9555 27.9301 44.9532 27.9032 44.9355C27.8762 44.9179 27.8603 44.8875 27.8614 44.8553L27.9166 43.1073L27.4001 38.9759C27.3959 38.9423 27.4105 38.9091 27.438 38.8894ZM27.6046 39.1219L28.1008 43.0916C28.1014 43.0963 28.1016 43.1011 28.1014 43.1059L28.0508 44.7096L33.6343 42.0491L27.6046 39.1219Z" fill="#D5BFB2"/>
<path d="M14.1338 42.0493L20.046 44.8576L20.0091 43.1024L20.5079 38.9639L14.1338 42.0493Z" fill="#D5BFB2"/>
<path fill-rule="evenodd" clip-rule="evenodd" d="M20.5617 38.8893C20.5892 38.9089 20.6038 38.942 20.5997 38.9755L20.1017 43.1076L20.1385 44.8563C20.1392 44.8883 20.1232 44.9184 20.0963 44.9358C20.0694 44.9532 20.0354 44.9554 20.0065 44.9417L14.0942 42.1333C14.0621 42.1181 14.0416 42.0858 14.0415 42.0502C14.0414 42.0147 14.0616 41.9822 14.0936 41.9668L20.4678 38.8813C20.4982 38.8666 20.5342 38.8696 20.5617 38.8893ZM14.3475 42.0491L19.9506 44.7106L19.9168 43.105C19.9167 43.1006 19.9169 43.0963 19.9175 43.092L20.3961 39.1213L14.3475 42.0491Z" fill="#D5BFB2"/>
<path d="M20.1571 31.9431L14.873 30.3911L18.6051 28.6729L20.1571 31.9431Z" fill="#233447"/>
<path fill-rule="evenodd" clip-rule="evenodd" d="M18.5666 28.5895C18.6126 28.5684 18.667 28.5881 18.6887 28.6338L20.2407 31.9041C20.2563 31.937 20.2511 31.976 20.2275 32.0036C20.2038 32.0313 20.1661 32.0426 20.1312 32.0323L14.8471 30.4803C14.8102 30.4695 14.7838 30.4368 14.781 30.3984C14.7782 30.36 14.7995 30.3239 14.8345 30.3078L18.5666 28.5895ZM15.1357 30.3725L19.9853 31.7969L18.5609 28.7956L15.1357 30.3725Z" fill="#233447"/>
<path d="M27.8428 31.9431L29.3947 28.6729L33.1453 30.3911L27.8428 31.9431Z" fill="#233447"/>
<path fill-rule="evenodd" clip-rule="evenodd" d="M29.3114 28.6338C29.333 28.5882 29.3874 28.5684 29.4333 28.5895L33.1839 30.3077C33.2189 30.3238 33.2403 30.3599 33.2375 30.3984C33.2348 30.4368 33.2084 30.4695 33.1714 30.4804L27.8688 32.0323C27.8339 32.0425 27.7962 32.0313 27.7726 32.0036C27.749 31.9759 27.7438 31.9369 27.7594 31.9041L29.3114 28.6338ZM29.4392 28.7954L28.0147 31.7971L32.8819 30.3726L29.4392 28.7954Z" fill="#233447"/>
<path d="M14.1341 42.0495L15.0579 34.4375L9.18262 34.6038L14.1341 42.0495Z" fill="#CC6228"/>
<path fill-rule="evenodd" clip-rule="evenodd" d="M15.1263 34.3758C15.1444 34.3957 15.1529 34.4225 15.1497 34.4492L14.2259 42.0612C14.2213 42.0996 14.1932 42.131 14.1555 42.14C14.1179 42.1489 14.0787 42.1335 14.0573 42.1012L9.10579 34.6555C9.08719 34.6276 9.08524 34.5917 9.10068 34.5619C9.11612 34.5321 9.14653 34.513 9.1801 34.512L15.0554 34.3457C15.0823 34.345 15.1082 34.356 15.1263 34.3758ZM9.35192 34.692L14.0726 41.7907L14.9534 34.5335L9.35192 34.692Z" fill="#CC6228"/>
<path d="M32.9424 34.4375L33.8477 42.0495L38.8177 34.6038L32.9424 34.4375Z" fill="#CC6228"/>
<path fill-rule="evenodd" clip-rule="evenodd" d="M32.8738 34.3758C32.8919 34.3559 32.9178 34.345 32.9446 34.3457L38.8199 34.512C38.8535 34.513 38.8839 34.5321 38.8993 34.562C38.9148 34.5918 38.9128 34.6277 38.8941 34.6557L33.9241 42.1014C33.9027 42.1336 33.8634 42.1489 33.8258 42.1399C33.7882 42.1309 33.7601 42.0994 33.7556 42.061L32.8503 34.449C32.8471 34.4223 32.8557 34.3956 32.8738 34.3758ZM33.0464 34.5335L33.9095 41.7906L38.6477 34.692L33.0464 34.5335Z" fill="#CC6228"/>
<path d="M37.3949 26.0498L26.8638 26.5302L27.843 31.9436L29.3949 28.6734L33.1455 30.3916L37.3949 26.0498Z" fill="#CC6228"/>
<path fill-rule="evenodd" clip-rule="evenodd" d="M37.4794 26.0117C37.4949 26.0463 37.4876 26.0869 37.4611 26.114L33.2116 30.4558C33.1844 30.4837 33.1426 30.4914 33.1071 30.4752L29.4394 28.7949L27.9265 31.9828C27.9093 32.019 27.8707 32.04 27.8309 32.0347C27.7911 32.0295 27.7593 31.9991 27.7522 31.9596L26.773 26.5462C26.7682 26.52 26.775 26.493 26.7916 26.4722C26.8082 26.4514 26.833 26.4387 26.8597 26.4375L37.3908 25.9571C37.4287 25.9554 37.4639 25.977 37.4794 26.0117ZM26.9736 26.6173L27.8828 31.6439L29.3116 28.6334C29.3332 28.5877 29.3876 28.5679 29.4335 28.589L33.125 30.2802L37.165 26.1524L26.9736 26.6173Z" fill="#CC6228"/>
<path d="M14.8729 30.3916L18.605 28.6734L20.1569 31.9436L21.1362 26.5302L10.605 26.0498L14.8729 30.3916Z" fill="#CC6228"/>
<path fill-rule="evenodd" clip-rule="evenodd" d="M10.5207 26.0118C10.5362 25.9771 10.5713 25.9554 10.6093 25.9571L21.1405 26.4375C21.1671 26.4387 21.1919 26.4514 21.2085 26.4722C21.2251 26.493 21.2319 26.52 21.2272 26.5462L20.2479 31.9596C20.2408 31.9991 20.209 32.0295 20.1692 32.0347C20.1294 32.04 20.0908 32.019 20.0736 31.9828L18.5608 28.7951L14.9116 30.4751C14.8762 30.4914 14.8344 30.4838 14.8071 30.456L10.5392 26.1142C10.5126 26.0871 10.5052 26.0464 10.5207 26.0118ZM10.8359 26.1524L14.8933 30.2801L18.5664 28.5891C18.6124 28.5679 18.6668 28.5876 18.6885 28.6334L20.1173 31.6439L21.0266 26.6173L10.8359 26.1524Z" fill="#CC6228"/>
<path d="M10.605 26.0498L15.0207 34.678L14.8729 30.3916L10.605 26.0498Z" fill="#E27525"/>
<path fill-rule="evenodd" clip-rule="evenodd" d="M10.551 25.9745C10.588 25.9478 10.639 25.9521 10.671 25.9847L14.9389 30.3265C14.9551 30.3429 14.9645 30.3649 14.9653 30.388L15.1131 34.6744C15.1146 34.7177 15.0859 34.7561 15.044 34.767C15.0021 34.7779 14.9583 34.7582 14.9386 34.7197L10.5228 26.0915C10.5021 26.0509 10.514 26.0012 10.551 25.9745ZM10.9623 26.5445L14.9142 34.2665L14.7819 30.4303L10.9623 26.5445Z" fill="#E27525"/>
<path d="M33.1453 30.3916L32.979 34.678L37.3947 26.0498L33.1453 30.3916Z" fill="#E27525"/>
<path fill-rule="evenodd" clip-rule="evenodd" d="M37.4488 25.9744C37.4858 26.0011 37.4978 26.0509 37.477 26.0915L33.0613 34.7197C33.0416 34.7583 32.9977 34.7779 32.9557 34.767C32.9138 34.756 32.8851 34.7173 32.8868 34.674L33.0531 30.3876C33.054 30.3647 33.0633 30.343 33.0794 30.3266L37.3288 25.9848C37.3607 25.9522 37.4117 25.9478 37.4488 25.9744ZM33.2363 30.4304L33.0876 34.2627L37.0356 26.5485L33.2363 30.4304Z" fill="#E27525"/>
<path d="M21.1364 26.5303L20.1572 31.9437L21.3951 38.3363L21.6722 29.9113L21.1364 26.5303Z" fill="#E27525"/>
<path fill-rule="evenodd" clip-rule="evenodd" d="M21.1371 26.4375C21.1821 26.438 21.2202 26.4709 21.2273 26.5154L21.7631 29.8965C21.764 29.9023 21.7644 29.9081 21.7642 29.914L21.487 38.3389C21.4855 38.3859 21.4489 38.4243 21.402 38.428C21.3551 38.4317 21.313 38.3996 21.304 38.3534L20.0661 31.9608C20.064 31.9496 20.0639 31.9381 20.0659 31.9268L21.0451 26.5134C21.0532 26.4691 21.092 26.437 21.1371 26.4375ZM20.2508 31.9427L21.3294 37.5125L21.5792 29.9167L21.13 27.0821L20.2508 31.9427Z" fill="#E27525"/>
<path d="M26.864 26.5303L26.3467 29.8929L26.6053 38.3363L27.8432 31.9437L26.864 26.5303Z" fill="#E27525"/>
<path fill-rule="evenodd" clip-rule="evenodd" d="M26.8624 26.4375C26.9075 26.4369 26.9465 26.469 26.9545 26.5134L27.9337 31.9268C27.9358 31.9381 27.9357 31.9496 27.9335 31.9608L26.6956 38.3534C26.6867 38.3996 26.6444 38.4317 26.5975 38.428C26.5506 38.4242 26.5141 38.3858 26.5126 38.3387L26.2539 29.8953C26.2538 29.8896 26.2541 29.884 26.255 29.8784L26.7723 26.5158C26.7792 26.4712 26.8173 26.4381 26.8624 26.4375ZM26.871 27.0896L26.4389 29.8981L26.6719 37.5042L27.7488 31.9427L26.871 27.0896Z" fill="#E27525"/>
<path d="M27.8429 31.9436L26.605 38.3362L27.4918 38.9644L32.9791 34.678L33.1454 30.3916L27.8429 31.9436Z" fill="#F5841F"/>
<path fill-rule="evenodd" clip-rule="evenodd" d="M33.2023 30.3184C33.2257 30.3366 33.239 30.3651 33.2378 30.3948L33.0715 34.6812C33.0705 34.7083 33.0575 34.7336 33.0361 34.7504L27.5488 39.0368C27.5166 39.0619 27.4718 39.0629 27.4385 39.0393L26.5517 38.4112C26.5221 38.3902 26.5075 38.3538 26.5144 38.3182L27.7523 31.9256C27.7588 31.8917 27.7838 31.8642 27.817 31.8545L33.1195 30.3025C33.1481 30.2942 33.1789 30.3001 33.2023 30.3184ZM27.9229 32.016L26.7071 38.2948L27.4892 38.8488L32.8886 34.6312L33.0482 30.5159L27.9229 32.016Z" fill="#F5841F"/>
<path d="M14.873 30.3916L15.0209 34.678L20.5082 38.9644L21.395 38.3362L20.1571 31.9436L14.873 30.3916Z" fill="#F5841F"/>
<path fill-rule="evenodd" clip-rule="evenodd" d="M14.8165 30.3182C14.84 30.3 14.8707 30.2942 14.8992 30.3026L20.1832 31.8545C20.2164 31.8643 20.2413 31.8917 20.2479 31.9256L21.4858 38.3182C21.4927 38.3538 21.4781 38.3902 21.4485 38.4112L20.5616 39.0393C20.5283 39.0629 20.4835 39.0619 20.4514 39.0368L14.9641 34.7504C14.9425 34.7336 14.9296 34.7081 14.9286 34.6808L14.7808 30.3944C14.7798 30.3647 14.7931 30.3364 14.8165 30.3182ZM14.9699 30.5159L15.1118 34.6313L20.5109 38.8488L21.2931 38.2948L20.0772 32.016L14.9699 30.5159Z" fill="#F5841F"/>
<path d="M27.9536 44.8581L28.0091 43.1029L27.5287 42.6965H20.471L20.0091 43.1029L20.046 44.8581L14.1338 42.0498L16.2031 43.7496L20.3971 46.6503H27.5841L31.7966 43.7496L33.8474 42.0498L27.9536 44.8581Z" fill="#C0AC9D"/>
<path fill-rule="evenodd" clip-rule="evenodd" d="M14.0559 41.9999C14.0809 41.9605 14.1314 41.946 14.1735 41.966L19.9506 44.7101L19.9168 43.1045C19.9162 43.0773 19.9277 43.0512 19.9481 43.0332L20.41 42.6267C20.4269 42.6119 20.4486 42.6037 20.4711 42.6037H27.5288C27.5507 42.6037 27.5718 42.6114 27.5885 42.6256L28.0688 43.032C28.0904 43.0502 28.1024 43.0773 28.1015 43.1055L28.0509 44.7091L33.8078 41.966C33.8499 41.946 33.9003 41.9604 33.9254 41.9997C33.9505 42.039 33.9424 42.0908 33.9065 42.1205L31.8557 43.8203C31.8535 43.8221 31.8514 43.8237 31.8491 43.8253L27.6366 46.726C27.6212 46.7366 27.6029 46.7423 27.5842 46.7423H20.3972C20.3784 46.7423 20.3601 46.7365 20.3446 46.7259L16.1506 43.8252C16.1485 43.8237 16.1465 43.8222 16.1445 43.8206L14.0753 42.1208C14.0392 42.0912 14.0309 42.0393 14.0559 41.9999ZM14.7742 42.4558L16.2589 43.6754L20.426 46.5575H27.5555L31.7409 43.6754L33.2165 42.4524L27.9935 44.9411C27.9644 44.955 27.9302 44.9527 27.9032 44.9351C27.8762 44.9174 27.8604 44.887 27.8614 44.8548L27.9154 43.1442L27.495 42.7885H20.5059L20.1024 43.1435L20.1385 44.8558C20.1392 44.8878 20.1232 44.9179 20.0963 44.9353C20.0694 44.9527 20.0354 44.9549 20.0065 44.9412L14.7742 42.4558Z" fill="#C0AC9D"/>
<path d="M27.492 38.9641L26.6051 38.3359H21.395L20.5081 38.9641L20.0093 43.1027L20.4712 42.6962H27.5289L28.0093 43.1027L27.492 38.9641Z" fill="#161616"/>
<path fill-rule="evenodd" clip-rule="evenodd" d="M21.3417 38.2602C21.3573 38.2491 21.3759 38.2432 21.3951 38.2432H26.6052C26.6243 38.2432 26.643 38.2491 26.6586 38.2602L27.5454 38.8883C27.5666 38.9033 27.5805 38.9265 27.5837 38.9523L28.101 43.0908C28.1058 43.1286 28.0868 43.1654 28.0534 43.1835C28.0199 43.2016 27.9788 43.1974 27.9497 43.1728L27.4952 42.7882H20.5061L20.0704 43.1716C20.0416 43.1969 20.0002 43.2019 19.9663 43.184C19.9324 43.1662 19.9131 43.1293 19.9177 43.0912L20.4165 38.9527C20.4196 38.9268 20.4335 38.9034 20.4548 38.8883L21.3417 38.2602ZM21.4245 38.4279L20.595 39.0154L20.1301 42.873L20.4102 42.6265C20.4271 42.6116 20.4488 42.6034 20.4713 42.6034H27.529C27.5509 42.6034 27.572 42.6112 27.5887 42.6253L27.8883 42.8789L27.4054 39.0156L26.5758 38.4279H21.4245Z" fill="#161616"/>
<path d="M46.337 17.0707L47.9074 9.42176L45.5425 2.30859L27.4917 15.7035L34.4386 21.5788L44.2492 24.4425L46.4109 21.9114L45.4686 21.2278L46.9651 19.8606L45.8196 18.9737L47.3162 17.8282L46.337 17.0707Z" fill="#763E1A"/>
<path fill-rule="evenodd" clip-rule="evenodd" d="M45.5704 2.2201C45.5987 2.22902 45.6209 2.25094 45.6303 2.27906L47.9952 9.39222C48.0003 9.4076 48.0012 9.42406 47.998 9.43994L46.4391 17.0325L47.3728 17.7548C47.3955 17.7723 47.4087 17.7994 47.4087 17.8281C47.4086 17.8567 47.3952 17.8838 47.3724 17.9012L45.9712 18.9737L47.0218 19.7871C47.0433 19.8038 47.0564 19.8292 47.0575 19.8564C47.0586 19.8836 47.0477 19.91 47.0275 19.9284L45.6147 21.2191L46.4652 21.8362C46.4861 21.8513 46.4997 21.8745 46.5027 21.9001C46.5057 21.9257 46.4979 21.9514 46.4812 21.971L44.3195 24.5021C44.2959 24.5298 44.2583 24.541 44.2234 24.5308L34.4128 21.6671C34.4004 21.6635 34.3889 21.6573 34.379 21.6489L27.4321 15.7737C27.4106 15.7554 27.3986 15.7284 27.3995 15.7002C27.4004 15.672 27.4141 15.6457 27.4367 15.6289L45.4876 2.23402C45.5113 2.21636 45.5422 2.21119 45.5704 2.2201ZM27.6404 15.7079L34.4834 21.4952L44.2178 24.3367L46.2758 21.927L45.4144 21.3021C45.392 21.2858 45.378 21.2603 45.3765 21.2326C45.3749 21.2048 45.3859 21.1779 45.4064 21.1592L46.8219 19.866L45.7632 19.0464C45.7405 19.0288 45.7273 19.0017 45.7274 18.9731C45.7274 18.9444 45.7408 18.9174 45.7636 18.9L47.1648 17.8274L46.2805 17.1434C46.2527 17.1218 46.2395 17.0863 46.2466 17.0517L47.812 9.42703L45.4952 2.45842L27.6404 15.7079Z" fill="#763E1A"/>
<path d="M0.0922852 9.42176L1.6812 17.0707L0.665033 17.8282L2.18004 18.9737L1.03455 19.8606L2.53108 21.2278L1.58882 21.9114L3.75048 24.4425L13.5611 21.5788L20.508 15.7035L2.45718 2.30859L0.0922852 9.42176Z" fill="#763E1A"/>
<path fill-rule="evenodd" clip-rule="evenodd" d="M2.42947 2.2201C2.45772 2.21119 2.48853 2.21636 2.51232 2.23402L20.5631 15.6289C20.5858 15.6457 20.5995 15.672 20.6004 15.7002C20.6013 15.7284 20.5893 15.7554 20.5677 15.7737L13.6209 21.6489C13.611 21.6573 13.5995 21.6635 13.5871 21.6671L3.77646 24.5308C3.74157 24.541 3.70394 24.5298 3.68033 24.5021L1.51867 21.971C1.50193 21.9514 1.49414 21.9257 1.49718 21.9001C1.50022 21.8745 1.51381 21.8513 1.53467 21.8362L2.38521 21.2191L0.972334 19.9284C0.952207 19.91 0.94123 19.8836 0.94234 19.8564C0.94345 19.8292 0.956534 19.8038 0.97809 19.7871L2.02812 18.9742L0.609413 17.9015C0.586232 17.884 0.57265 17.8566 0.572749 17.8275C0.572848 17.7985 0.586616 17.7711 0.609915 17.7538L1.57887 17.0315L0.00193088 9.44015C-0.00138117 9.42421 -0.000419707 9.40767 0.00471784 9.39222L2.36961 2.27906C2.37896 2.25094 2.40122 2.22902 2.42947 2.2201ZM2.50468 2.45842L0.187883 9.42692L1.77174 17.0515C1.77905 17.0867 1.7653 17.1229 1.7365 17.1444L0.81899 17.8284L2.23585 18.8996C2.2588 18.917 2.27235 18.944 2.27252 18.9728C2.27268 19.0016 2.25944 19.0288 2.23669 19.0464L1.178 19.866L2.59349 21.1592C2.61398 21.1779 2.62497 21.2048 2.62341 21.2326C2.62185 21.2603 2.6079 21.2858 2.58543 21.3021L1.7241 21.927L3.78203 24.3367L13.5165 21.4952L20.3594 15.7079L2.50468 2.45842Z" fill="#763E1A"/>
<path d="M44.2492 24.4419L34.4386 21.5781L37.3947 26.0493L32.979 34.6774L38.8173 34.6035H47.5379L44.2492 24.4419Z" fill="#F5841F"/>
<path fill-rule="evenodd" clip-rule="evenodd" d="M34.3643 21.5239C34.3873 21.4927 34.4274 21.4792 34.4646 21.49L44.2752 24.3538C44.3046 24.3623 44.3278 24.3849 44.3372 24.414L47.6259 34.5757C47.635 34.6038 47.6301 34.6346 47.6127 34.6585C47.5953 34.6824 47.5675 34.6965 47.538 34.6965H38.8174L32.9803 34.7704C32.9479 34.7708 32.9177 34.7542 32.9006 34.7267C32.8835 34.6992 32.8821 34.6648 32.8969 34.6359L37.288 26.0558L34.3616 21.6297C34.3402 21.5973 34.3413 21.5551 34.3643 21.5239ZM34.6548 21.738L37.4719 25.9989C37.4902 26.0267 37.4922 26.0623 37.477 26.0919L33.1311 34.5837L38.8174 34.5117L47.411 34.5117L44.1765 24.5174L34.6548 21.738Z" fill="#F5841F"/>
<path d="M13.5613 21.5781L3.75068 24.4419L0.480469 34.6035H9.18255L15.0209 34.6774L10.6052 26.0493L13.5613 21.5781Z" fill="#F5841F"/>
<path fill-rule="evenodd" clip-rule="evenodd" d="M13.6358 21.5239C13.6588 21.5551 13.6598 21.5973 13.6385 21.6297L10.7121 26.0558L15.1032 34.6359C15.118 34.6648 15.1166 34.6992 15.0995 34.7267C15.0824 34.7542 15.0522 34.7708 15.0198 34.7704L9.18264 34.6965H0.480563C0.451038 34.6965 0.423291 34.6824 0.405903 34.6585C0.388515 34.6347 0.383581 34.6039 0.392626 34.5758L3.66283 24.4142C3.67222 24.385 3.69547 24.3624 3.72489 24.3538L13.5355 21.49C13.5727 21.4792 13.6127 21.4927 13.6358 21.5239ZM3.8237 24.5174L0.607337 34.5117H9.18381L14.8689 34.5837L10.523 26.0919C10.5079 26.0623 10.5098 26.0267 10.5282 25.9989L13.3453 21.738L3.8237 24.5174Z" fill="#F5841F"/>
<path d="M26.8635 26.5302L27.4917 15.7034L30.337 7.99902H17.6626L20.5079 15.7034L21.136 26.5302L21.3762 29.9297L21.3947 38.3362H26.6049L26.6233 29.9297L26.8635 26.5302Z" fill="#F5841F"/>
<path fill-rule="evenodd" clip-rule="evenodd" d="M17.5869 7.94582C17.6042 7.92103 17.6325 7.90625 17.6627 7.90625H30.3371C30.3673 7.90625 30.3956 7.92103 30.4129 7.94582C30.4301 7.97061 30.4342 8.00229 30.4237 8.03063L27.5832 15.7221L26.9558 26.5352L26.9558 26.5363L26.7158 29.9327L26.6973 38.336C26.6972 38.387 26.6559 38.4282 26.605 38.4282H21.3948C21.3439 38.4282 21.3025 38.387 21.3024 38.336L21.2839 29.9327L21.044 26.5363L21.0439 26.5352L20.4165 15.7221L17.576 8.03063C17.5656 8.00229 17.5696 7.97061 17.5869 7.94582ZM17.7953 8.09101L20.5946 15.671C20.5978 15.6796 20.5997 15.6886 20.6002 15.6977L21.2283 26.5233L21.2284 26.5245L21.4685 29.9228C21.4686 29.9249 21.4687 29.927 21.4687 29.9291L21.487 38.2434H26.5128L26.5311 29.9291C26.5311 29.927 26.5311 29.9249 26.5313 29.9228L26.7714 26.5245L26.7715 26.5233L27.3996 15.6977C27.4001 15.6886 27.402 15.6796 27.4051 15.671L30.2045 8.09101H17.7953Z" fill="#F5841F"/>
</svg>
