<svg width="32" height="33" viewBox="0 0 32 33" fill="none" xmlns="http://www.w3.org/2000/svg">
<path d="M32 16.4492C32 7.61266 24.8366 0.449219 16 0.449219C7.16344 0.449219 0 7.61266 0 16.4492C0 25.2858 7.16344 32.4492 16 32.4492C24.8366 32.4492 32 25.2858 32 16.4492Z" fill="url(#paint0_radial)"/>
<path d="M10.5757 11.9824C13.5716 9.04924 18.4287 9.04924 21.4245 11.9824L21.7851 12.3354C21.9349 12.4821 21.9349 12.7198 21.7851 12.8665L20.5517 14.0741C20.4768 14.1474 20.3554 14.1474 20.2805 14.0741L19.7843 13.5883C17.6944 11.542 14.3059 11.542 12.2159 13.5883L11.6846 14.1085C11.6097 14.1819 11.4883 14.1819 11.4134 14.1085L10.18 12.9009C10.0302 12.7543 10.0302 12.5165 10.18 12.3699L10.5757 11.9824ZM23.9753 14.4798L25.073 15.5545C25.2228 15.7012 25.2228 15.939 25.073 16.0856L20.1233 20.9318C19.9736 21.0785 19.7307 21.0785 19.5809 20.9318C19.5809 20.9318 19.5809 20.9318 19.5809 20.9318L16.068 17.4923C16.0305 17.4557 15.9698 17.4557 15.9324 17.4923C15.9324 17.4923 15.9324 17.4923 15.9324 17.4923L12.4195 20.9318C12.2697 21.0785 12.0268 21.0785 11.877 20.9318C11.877 20.9318 11.877 20.9318 11.877 20.9318L6.92728 16.0856C6.77749 15.9389 6.77749 15.7011 6.92728 15.5545L8.02499 14.4797C8.17478 14.3331 8.41764 14.3331 8.56743 14.4797L12.0804 17.9192C12.1179 17.9559 12.1786 17.9559 12.216 17.9192C12.216 17.9192 12.216 17.9192 12.216 17.9192L15.7289 14.4797C15.8786 14.3331 16.1215 14.3331 16.2713 14.4797C16.2713 14.4797 16.2713 14.4797 16.2713 14.4797L19.7843 17.9192C19.8217 17.9559 19.8824 17.9559 19.9199 17.9192L23.4328 14.4798C23.5826 14.3331 23.8255 14.3331 23.9753 14.4798Z" fill="white"/>
<defs>
<radialGradient id="paint0_radial" cx="0" cy="0" r="1" gradientUnits="userSpaceOnUse" gradientTransform="translate(0 16.4492) scale(32)">
<stop stop-color="#5D9DF6"/>
<stop offset="1" stop-color="#006FFF"/>
</radialGradient>
</defs>
</svg>
