<?xml version="1.0" encoding="UTF-8"?>
<svg width="238px" height="238px" viewBox="0 0 238 238" version="1.1" xmlns="http://www.w3.org/2000/svg" xmlns:xlink="http://www.w3.org/1999/xlink">
    <title>logo/your/icon/white</title>
    <defs>
        <linearGradient x1="-24.5801021%" y1="-24.2658799%" x2="108.549419%" y2="109.875843%" id="linearGradient-1">
            <stop stop-color="#88CAB9" offset="0%"></stop>
            <stop stop-color="#2E7A6E" offset="51.9176136%"></stop>
            <stop stop-color="#2B7368" offset="100%"></stop>
        </linearGradient>
    </defs>
    <g id="logo/your/icon/white" stroke="none" stroke-width="1" fill="none" fill-rule="evenodd">
        <g id="Group-8">
            <circle id="Oval" fill="url(#linearGradient-1)" fill-rule="nonzero" cx="119" cy="119" r="119"></circle>
            <g id="Group-2" transform="translate(51.000000, 52.000000)" fill="#FFFFFF">
                <path d="M102.940679,59.8808392 L136.479407,5.75834745 C137.898181,3.46819317 136.249243,0.515370552 133.559411,0.515370552 L89.8522274,0.515370552 C88.6326998,0.515370552 87.5024896,1.16087131 86.8875729,2.2115268 L76.1419884,20.5396281 C75.5133305,21.6074512 75.5133305,22.9327878 76.1385531,24.0040444 L97.0525934,59.8053019 C98.3580033,62.0405199 101.576869,62.0817221 102.940679,59.8808392" id="Fill-8"></path>
                <path d="M91.249016,72.0111032 L91.249016,72.0111032 L64.92096,26.9496566 L50.1045579,1.69615625 C49.4896411,0.645500758 48.359431,0 47.1399034,0 L3.44302545,0 C0.746323476,0 -0.899180024,2.95625613 0.523029681,5.2429769 L46.3326104,78.981138 C46.672704,79.5236333 46.8513391,80.1519665 46.8513391,80.7906002 L46.8513391,150.566485 C46.8513391,152.461785 48.3869133,154 50.2866282,154 L87.8137268,154 C89.7100064,154 91.249016,152.461785 91.249016,150.566485 L91.249016,83.5545795 L91.249016,72.0111032 Z" id="Fill-10"></path>
            </g>
        </g>
    </g>
</svg>