<?xml version="1.0" encoding="UTF-8"?>
<svg width="92px" height="92px" viewBox="0 0 92 92" version="1.1" xmlns="http://www.w3.org/2000/svg">
    <title>Error </title>
    <defs>
        <linearGradient x1="-24.5801021%" y1="-24.2658799%" x2="108.083931%" y2="109.406816%" id="linearGradient-1">
            <stop stop-color="#CA8888" offset="0%" />
            <stop stop-color="#7A2E2E" offset="51.5597684%" />
            <stop stop-color="#732B2B" offset="100%" />
        </linearGradient>
        <linearGradient x1="-24.5801021%" y1="-24.2658799%" x2="108.549419%" y2="109.875843%" id="linearGradient-2">
            <stop stop-color="#CA8888" offset="0%" />
            <stop stop-color="#7A2E2E" offset="51.9176136%" />
            <stop stop-color="#732B2B" offset="99.6503497%" />
        </linearGradient>
    </defs>
    <g id="Staking" stroke="none" stroke-width="1" fill="none" fill-rule="evenodd">
        <g id="Transaction-succesfull-white" transform="translate(-294.000000, -141.000000)">
            <g id="Group" transform="translate(146.000000, 135.000000)">
                <g id="Error-" transform="translate(148.000000, 6.000000)">
                    <path d="M46.0003016,0 C20.6356155,0 0,20.6354492 0,46 C0,71.3645508 20.6356155,92 46.0003016,92 C71.3646861,92 92,71.3645508 92,46 C92,20.6354492 71.3646861,0 46.0003016,0 Z M46.0003016,84.4590164 C24.7936866,84.4590164 7.54093416,67.2067541 7.54093416,46 C7.54093416,24.7935475 24.7936866,7.54098361 46.0003016,7.54098361 C67.206615,7.54098361 84.4590658,24.7935475 84.4590658,46 C84.4590658,67.2067541 67.206615,84.4590164 46.0003016,84.4590164 Z" id="Shape" fill="url(#linearGradient-1)" />
                    <g id="close-cross-svgrepo-com" transform="translate(30.000000, 30.000000)" fill="url(#linearGradient-2)">
                        <path d="M22.0875274,16.4996048 L31.842386,6.74541971 C33.3858713,5.20191594 33.3858713,2.69974853 31.842386,1.15703509 C30.3004814,-0.385678362 27.7967633,-0.385678362 26.2548586,1.15703509 L16.5,10.9128009 L6.74514136,1.15703509 C5.2032367,-0.385678362 2.69951863,-0.385678362 1.15761397,1.15703509 C-0.385871322,2.70053886 -0.385871322,5.20270626 1.15761397,6.74541971 L10.9116823,16.4996048 L1.15761397,26.25379 C-0.385871322,27.7972937 -0.385871322,30.2994611 1.15761397,31.8421746 C1.92817114,32.6143216 2.94056472,32.9992097 3.95137766,32.9992097 C4.96140029,32.9992097 5.97458419,32.6143216 6.74514136,31.8421746 L16.5,22.0879895 L26.2548586,31.8429649 C27.0262061,32.615112 28.0378094,33 29.0486223,33 C30.0594353,33 31.0718289,32.615112 31.842386,31.8429649 C33.3858713,30.2994611 33.3858713,27.7972937 31.842386,26.2545803 L22.0875274,16.4996048 Z" id="Path" />
                    </g>
                </g>
            </g>
        </g>
    </g>
</svg>